# xmcd
#
# Track frame offsets: 
#        150
#        13580
#        25810
#        38297
#        49077
#        61500
#        71847
#        84027
#        96862
#        109582
#        121697
#        133637
#        144982
#        157722
#        171065
#        184155
#        194915
#        207215
#        218645
#        228787
#        241497
#        253420
#        270845
#        283670
#        294425
#        305012
#        314695
#        326612
#
# Disc length: 4517 seconds
#
# Revision: 11
# Processed by: cddbd v1.5.2PL0 Copyright (c) Steve Scherf et al.
# Submitted via: ExactAudioCopyFreeDBPlugin 1.0
#
DISCID=8111a31c
DTITLE=Various Artist - The Complete Stax-Volt Singles, 1959-1975
DYEAR=1993
DGENRE=Soul
TTITLE0=Shirley Walton - I Was Born To Love You
TTITLE1=Isaac Hayes - Precious, Precious
TTITLE2=Shirley Walton - Send Peace and Harmony Home
TTITLE3=Booker T. and The M.G.'s - Soul Limbo
TTITLE4=Eddie Floyd - I've Never Found a Girl (To Love Me Like You Do)
TTITLE5=Delaney and Bonnie - It's Been a Long Time Coming
TTITLE6=Linda Lyndell - What a Man
TTITLE7=Jimmy Hughes - I Like Everything About You
TTITLE8=Johnny Daye - Stay Baby Stay
TTITLE9=Judy Clay and William Bell - Private Number
TTITLE10=The Mad Lads - So Nice
TTITLE11=The Staple Singers - Long Walk to D.C.
TTITLE12=Soul Children - Give 'Em Love
TTITLE13=Rufus Thomas - Funky Mississippi
TTITLE14=The Charmels - Lovin' Feeling
TTITLE15=Carla Thomas - Where Do I Go
TTITLE16=Judy Clay - Bed of Roses
TTITLE17=Eddie Floyd - Bring it on Home to Me
TTITLE18=Jeanne and The Darlings - It's Unbelievable (How You Control My
TTITLE18=Soul)
TTITLE19=Johnnie Taylor - Who's Making Love
TTITLE20=Dino and Doc - Mighty Cold Winter
TTITLE21=Booker T. and The M.G.s - Hang 'Em High
TTITLE22=Ollie and The Nightingales - You're Leaving Me
TTITLE23=The Bar-Kays - Copy Kat
TTITLE24=William Bell - I Forgot to Be Your Lover
TTITLE25=Mable John - Running Out
TTITLE26=William Bell and Judy Clay - My Baby Specializes
TTITLE27=The Soul Children - I'll Understand
EXTD=YEAR: 1993
EXTT0=Shirley Walton
EXTT1=Isaac Hayes
EXTT2=Shirley Walton
EXTT3=Booker T and the MG's
EXTT4=Eddie Floyd
EXTT5=Delaney and Bonnie
EXTT6=Linda Lydell
EXTT7=Jimmy Hughes
EXTT8=Johnny Daye
EXTT9=Judy Clay and William Bell
EXTT10=Mad Lads
EXTT11=The Staple Singers
EXTT12=The Soul Children
EXTT13=Rufus Thomas
EXTT14=Charmels
EXTT15=Carla Thomas
EXTT16=Judy Clay
EXTT17=Eddie Floyd
EXTT18=Jeanne and The Darlings
EXTT19=Johnnie Taylor
EXTT20=Dino and Doc
EXTT21=Booker T and the MG's
EXTT22=Ollie and The Nightingales
EXTT23=Bar-Kays
EXTT24=William Bell
EXTT25=Mable John
EXTT26=William Bell and Judy Clay
EXTT27=The Soul Children
PLAYORDER=
